<?xml version="1.0" encoding="UTF-8"?>
<!DOCTYPE svg PUBLIC "-//W3C//DTD SVG 1.1//EN" "http://www.w3.org/Graphics/SVG/1.1/DTD/svg11.dtd">
<svg xmlns="http://www.w3.org/2000/svg" version="1.1" width="291px" height="86px" style="shape-rendering:geometricPrecision; text-rendering:geometricPrecision; image-rendering:optimizeQuality; fill-rule:evenodd; clip-rule:evenodd" xmlns:xlink="http://www.w3.org/1999/xlink">
<g><path style="opacity:1" fill="#fcfdfd" d="M -0.5,-0.5 C 96.5,-0.5 193.5,-0.5 290.5,-0.5C 290.5,28.1667 290.5,56.8333 290.5,85.5C 193.5,85.5 96.5,85.5 -0.5,85.5C -0.5,56.8333 -0.5,28.1667 -0.5,-0.5 Z"/></g>
<g><path style="opacity:1" fill="#37a6dc" d="M 39.5,5.5 C 51.7603,16.0918 63.427,27.4251 74.5,39.5C 63.8058,51.0279 52.6391,62.0279 41,72.5C 29.1667,62 18,50.8333 7.5,39C 17.9336,28.5664 28.4336,18.0664 39,7.5C 39.4643,6.90558 39.631,6.23891 39.5,5.5 Z"/></g>
<g><path style="opacity:1" fill="#f5fafd" d="M 39.5,9.5 C 42.1662,9.06577 43.3329,10.0658 43,12.5C 35.5,20 28,27.5 20.5,35C 26.3333,40.8333 32.1667,46.6667 38,52.5C 38.6013,53.9653 38.1013,54.9653 36.5,55.5C 29.1667,48.8333 22.1667,41.8333 15.5,34.5C 23.5214,26.1461 31.5214,17.8128 39.5,9.5 Z"/></g>
<g><path style="opacity:1" fill="#f2f9fc" d="M 44.5,13.5 C 53.9123,21.408 62.9123,29.908 71.5,39C 70.5342,40.6779 69.2009,41.3446 67.5,41C 60.319,33.652 52.9857,26.4854 45.5,19.5C 39.1812,25.3185 33.0145,31.3185 27,37.5C 25.3221,36.5342 24.6554,35.2009 25,33.5C 31.7027,26.9648 38.2027,20.2982 44.5,13.5 Z"/></g>
<g><path style="opacity:1" fill="#102b4c" d="M 153.5,21.5 C 155.5,21.5 157.5,21.5 159.5,21.5C 159.276,28.2844 158.276,34.9511 156.5,41.5C 160.015,46.1399 158.848,48.8066 153,49.5C 150.116,48.576 148.949,46.576 149.5,43.5C 151.48,36.2436 152.814,28.9102 153.5,21.5 Z"/></g>
<g><path style="opacity:1" fill="#0d294a" d="M 164.5,21.5 C 166.5,21.5 168.5,21.5 170.5,21.5C 169.509,29.4829 168.509,37.4829 167.5,45.5C 168.675,45.281 169.675,45.6143 170.5,46.5C 167.485,49.7283 164.319,50.0616 161,47.5C 160.833,46.3333 160.667,45.1667 160.5,44C 162.414,36.5994 163.747,29.0994 164.5,21.5 Z"/></g>
<g><path style="opacity:1" fill="#102b4c" d="M 189.5,22.5 C 192.97,21.8748 195.804,22.8748 198,25.5C 199.844,33.9358 198.01,41.4358 192.5,48C 185.063,52.1949 181.896,50.0282 183,41.5C 185.067,38.93 187.567,36.93 190.5,35.5C 191.484,32.5719 191.817,29.5719 191.5,26.5C 183.043,29.3703 182.377,28.0369 189.5,22.5 Z"/></g>
<g><path style="opacity:1" fill="#eef7fc" d="M 44.5,22.5 C 52.4245,28.7549 59.7578,35.7549 66.5,43.5C 58.1667,52.5 49.5,61.1667 40.5,69.5C 39.354,68.8551 38.354,68.0217 37.5,67C 45.3479,59.319 53.0146,51.4857 60.5,43.5C 54.6815,37.1812 48.6815,31.0145 42.5,25C 43.3805,24.2917 44.0472,23.4584 44.5,22.5 Z"/></g>
<g><path style="opacity:1" fill="#102b4c" d="M 89.5,22.5 C 92.9705,21.8748 95.8038,22.8748 98,25.5C 99.8372,33.9718 98.0039,41.4718 92.5,48C 85.1433,51.56 81.9766,49.3933 83,41.5C 85.0673,38.93 87.5673,36.93 90.5,35.5C 91.4841,32.5719 91.8174,29.5719 91.5,26.5C 83.0433,29.3703 82.3766,28.0369 89.5,22.5 Z"/></g>
<g><path style="opacity:1" fill="#0d294a" d="M 175.5,23.5 C 181.209,22.6779 182.543,24.5112 179.5,29C 174.728,29.8104 173.395,27.9771 175.5,23.5 Z"/></g>
<g><path style="opacity:1" fill="#eef7fc" d="M 39.5,27.5 C 41.0898,27.6282 42.4231,28.2949 43.5,29.5C 41.1833,32.3174 38.6833,34.9841 36,37.5C 34.9783,36.646 34.1449,35.646 33.5,34.5C 35.5227,32.1472 37.5227,29.8138 39.5,27.5 Z"/></g>
<g><path style="opacity:1" fill="#112b4c" d="M 125.5,26.5 C 127.167,26.5 128.833,26.5 130.5,26.5C 130.5,28.5 130.5,30.5 130.5,32.5C 131.5,32.5 132.5,32.5 133.5,32.5C 133.5,33.5 133.5,34.5 133.5,35.5C 132.167,35.5 130.833,35.5 129.5,35.5C 128.793,38.7861 128.46,42.1194 128.5,45.5C 129.675,45.281 130.675,45.6143 131.5,46.5C 128.485,49.7283 125.319,50.0616 122,47.5C 121.287,43.4932 121.787,39.6598 123.5,36C 122.552,35.5172 121.552,35.3505 120.5,35.5C 120.5,34.5 120.5,33.5 120.5,32.5C 121.5,32.5 122.5,32.5 123.5,32.5C 123.259,30.1137 123.925,28.1137 125.5,26.5 Z"/></g>
<g><path style="opacity:1" fill="#ecf6fb" d="M 44.5,31.5 C 47.3943,32.8823 49.8943,34.8823 52,37.5C 52.9248,40.1341 52.0915,41.3008 49.5,41C 47.6667,39.1667 45.8333,37.3333 44,35.5C 43.4209,34.0715 43.5876,32.7382 44.5,31.5 Z"/></g>
<g><path style="opacity:1" fill="#0c2849" d="M 104.5,48.5 C 103.167,48.5 101.833,48.5 100.5,48.5C 100.5,47.1667 100.5,45.8333 100.5,44.5C 101.648,40.814 101.648,37.1473 100.5,33.5C 105.862,33.0238 111.196,32.8571 116.5,33C 117.578,36.099 117.578,39.2657 116.5,42.5C 116.79,44.0441 117.456,45.3774 118.5,46.5C 116.036,49.1592 113.203,49.8258 110,48.5C 110.181,44.4529 110.015,40.4529 109.5,36.5C 108.077,40.7766 106.41,44.7766 104.5,48.5 Z"/></g>
<g><path style="opacity:1" fill="#142d4e" d="M 138.5,32.5 C 141.93,32.1065 145.096,32.7732 148,34.5C 148.743,36.4406 148.576,38.2739 147.5,40C 138.41,43.5363 138.41,45.3696 147.5,45.5C 142.551,50.6985 137.717,50.6985 133,45.5C 131.571,39.7001 133.404,35.3668 138.5,32.5 Z"/></g>
<g><path style="opacity:1" fill="#132c4d" d="M 172.5,32.5 C 175.167,32.5 177.833,32.5 180.5,32.5C 179.993,36.8595 179.327,41.1928 178.5,45.5C 179.675,45.281 180.675,45.6143 181.5,46.5C 178.485,49.7283 175.319,50.0616 172,47.5C 171.681,43.7605 172.181,40.0939 173.5,36.5C 173.154,35.1508 172.821,33.8175 172.5,32.5 Z"/></g>
<g><path style="opacity:1" fill="#0b2849" d="M 213.5,48.5 C 212.167,48.5 210.833,48.5 209.5,48.5C 209.5,46.8333 209.5,45.1667 209.5,43.5C 209.62,41.8014 209.954,40.1347 210.5,38.5C 210.267,37.0683 209.6,36.5683 208.5,37C 207.743,41.2388 206.41,45.0722 204.5,48.5C 203.167,48.5 201.833,48.5 200.5,48.5C 200.5,46.8333 200.5,45.1667 200.5,43.5C 201.618,40.1449 201.618,36.8116 200.5,33.5C 203.645,32.0045 206.478,32.3379 209,34.5C 211.803,31.8975 214.636,31.8975 217.5,34.5C 225.905,30.3997 228.572,32.8997 225.5,42C 225.748,43.7159 226.415,45.2159 227.5,46.5C 225.036,49.1592 222.203,49.8258 219,48.5C 218.754,44.3805 218.588,40.3805 218.5,36.5C 216.838,40.6001 215.171,44.6001 213.5,48.5 Z"/></g>
<g><path style="opacity:1" fill="#142d4e" d="M 233.5,32.5 C 237.514,32.3345 241.514,32.5012 245.5,33C 246.308,33.3076 246.975,33.8076 247.5,34.5C 245.776,37.95 245.109,41.6166 245.5,45.5C 246.675,45.281 247.675,45.6143 248.5,46.5C 245.356,49.7979 242.023,50.1312 238.5,47.5C 235.668,49.6467 233.001,49.6467 230.5,47.5C 228.532,41.8214 229.532,36.8214 233.5,32.5 Z"/></g>
<g><path style="opacity:1" fill="#122c4d" d="M 253.5,32.5 C 257.833,32.5 262.167,32.5 266.5,32.5C 266.708,41.1863 264.374,49.0196 259.5,56C 255.746,58.3101 252.746,57.6434 250.5,54C 250.759,52.7387 251.426,51.7387 252.5,51C 260.517,47.8281 260.184,46.8281 251.5,48C 248.476,42.3905 249.142,37.2238 253.5,32.5 Z"/></g>
<g><path style="opacity:1" fill="#112b4c" d="M 273.5,32.5 C 275.857,32.3367 278.19,32.5034 280.5,33C 284.108,34.9569 284.441,37.4569 281.5,40.5C 279.227,41.6509 276.894,42.6509 274.5,43.5C 274.709,44.086 275.043,44.586 275.5,45C 277.936,44.9466 280.269,45.1133 282.5,45.5C 277.551,50.6985 272.717,50.6985 268,45.5C 267.333,42.8333 267.333,40.1667 268,37.5C 269.73,35.5981 271.563,33.9314 273.5,32.5 Z"/></g>
<g><path style="opacity:1" fill="#dee2e7" d="M 140.5,35.5 C 142.984,37.0277 142.818,38.6944 140,40.5C 139.616,38.8034 139.782,37.1368 140.5,35.5 Z"/></g>
<g><path style="opacity:1" fill="#eff1f3" d="M 237.5,35.5 C 238.586,35.62 239.253,36.2867 239.5,37.5C 239.046,40.222 238.38,42.8886 237.5,45.5C 236.249,42.1259 236.249,38.7926 237.5,35.5 Z"/></g>
<g><path style="opacity:1" fill="#e8ebee" d="M 257.5,35.5 C 258.725,36.1522 259.392,37.3189 259.5,39C 259.604,41.1454 258.937,42.9788 257.5,44.5C 256.259,41.463 256.259,38.463 257.5,35.5 Z"/></g>
<g><path style="opacity:1" fill="#f2f9fc" d="M 39.5,36.5 C 43.9047,37.6255 44.4047,39.6255 41,42.5C 38.5213,40.9116 38.0213,38.9116 39.5,36.5 Z"/></g>
<g><path style="opacity:1" fill="#f1f8fc" d="M 12.5,36.5 C 20.4649,43.9642 28.2983,51.6309 36,59.5C 41.7792,53.7208 47.6126,47.8874 53.5,42C 55.3185,41.2172 56.6518,41.7172 57.5,43.5C 50.5146,50.9857 43.348,58.319 36,65.5C 27.6667,57.1667 19.3333,48.8333 11,40.5C 10.7003,38.9343 11.2003,37.601 12.5,36.5 Z"/></g>
<g><path style="opacity:1" fill="#f9fcfd" d="M 30.5,36.5 C 33.1303,38.6281 35.6303,40.9614 38,43.5C 38.5,45.6667 37.6667,46.5 35.5,46C 33.1667,43.6667 30.8333,41.3333 28.5,39C 29.3805,38.2917 30.0472,37.4584 30.5,36.5 Z"/></g>
<g><path style="opacity:1" fill="#ccd2d8" d="M 275.5,35.5 C 277.984,37.0277 277.818,38.6944 275,40.5C 274.36,38.735 274.527,37.0683 275.5,35.5 Z"/></g>
<g><path style="opacity:1" fill="#ebedf0" d="M 89.5,38.5 C 90.2389,38.369 90.9056,38.5357 91.5,39C 90.6005,41.1917 89.6005,43.3584 88.5,45.5C 87.675,46.3857 86.675,46.719 85.5,46.5C 85.3433,45.1266 85.51,43.7932 86,42.5C 87.3756,41.2949 88.5423,39.9616 89.5,38.5 Z"/></g>
<g><path style="opacity:1" fill="#e2e5ea" d="M 189.5,38.5 C 190.859,41.8223 189.859,44.489 186.5,46.5C 185.5,46.1667 184.833,45.5 184.5,44.5C 185.72,42.0189 187.386,40.0189 189.5,38.5 Z"/></g>
<g><path style="opacity:1" fill="#f2f9fc" d="M 44.5,41.5 C 46.1958,41.6854 47.5291,42.5187 48.5,44C 46,46.5 43.5,49 41,51.5C 39.9783,50.646 39.1449,49.646 38.5,48.5C 40.5227,46.1472 42.5227,43.8138 44.5,41.5 Z"/></g>
<g><path style="opacity:1" fill="#94a1b0" d="M 100.5,44.5 C 100.5,45.8333 100.5,47.1667 100.5,48.5C 101.833,48.5 103.167,48.5 104.5,48.5C 103.081,49.4511 101.415,49.7845 99.5,49.5C 99.2155,47.5853 99.5489,45.9187 100.5,44.5 Z"/></g>
<g><path style="opacity:1" fill="#8c9aaa" d="M 200.5,43.5 C 200.5,45.1667 200.5,46.8333 200.5,48.5C 201.833,48.5 203.167,48.5 204.5,48.5C 203.081,49.4511 201.415,49.7845 199.5,49.5C 199.205,47.2646 199.539,45.2646 200.5,43.5 Z"/></g>
<g><path style="opacity:1" fill="#9ba7b5" d="M 209.5,43.5 C 209.5,45.1667 209.5,46.8333 209.5,48.5C 210.833,48.5 212.167,48.5 213.5,48.5C 212.081,49.4511 210.415,49.7845 208.5,49.5C 208.205,47.2646 208.539,45.2646 209.5,43.5 Z"/></g>
<g><path style="opacity:1" fill="#d4d8de" d="M 254.5,51.5 C 258.102,51.678 258.102,52.678 254.5,54.5C 253.438,53.5754 253.438,52.5754 254.5,51.5 Z"/></g>
</svg>
